<svg fill="none" height="495" viewBox="0 0 945 495" width="945" xmlns="http://www.w3.org/2000/svg" xmlns:xlink="http://www.w3.org/1999/xlink"><clipPath id="clip0_3445_702"><path d="M0 0H945V495H0Z"/></clipPath><clipPath id="clip1_3445_702"><path d="M.070068 0H945.930068V495H.070068Z"/></clipPath><clipPath id="clip2_3445_702"><path d="M127.059-42.5637H818.856V615.5973H127.059Z"/></clipPath><g clip-path="url(#clip0_3445_702)"><path d="M0 0H945V495H0Z" fill="#ff7059"/><g clip-path="url(#clip1_3445_702)"><path d="M0 0H945.86V495H0Z" fill="#ff7059" transform="matrix(1 0 0 1 .070068 0)"/><g clip-rule="evenodd" fill-rule="evenodd"><path d="M982.207 356.494C1003.21 359.261 1023.29 369.54 1038.07 386.971 1069.64 424.213 1065.04 479.997 1027.8 511.567 995.857 538.645 950.276 539.117 918.03 515.206 894.738 526.633 867.746 527.061 844.386 517.096 839.25 526.94 832.161 535.974 823.168 543.597 785.927 575.168 730.143 570.571 698.573 533.329 667.002 496.087 671.599 440.304 708.841 408.733 716.657 402.107 725.29 397.074 734.345 393.602 730.328 364.62 740.775 334.269 764.745 313.949 798.248 285.547 846.757 286.417 879.144 313.992 879.436 313.736 879.73 313.481 880.027 313.23 906.203 291.039 945.412 294.271 967.602 320.447 976.549 331.001 981.363 343.673 982.207 356.494Z" fill="#e55041"/><path d="M831.292 262.142C845.522 277.832 854.193 298.659 854.193 321.51 854.193 370.333 814.614 409.912 765.792 409.912 723.917 409.912 688.843 380.797 679.708 341.707 654.552 335.362 633.686 318.234 622.31 295.527 612.027 299.715 600.777 302.022 588.989 302.022 540.166 302.022 500.588 262.444 500.588 213.621 500.588 164.798 540.166 125.22 588.989 125.22 599.236 125.22 609.076 126.963 618.228 130.17 633.904 105.465 661.499 89.0685 692.924 89.0685 736.845 89.0685 773.285 121.1 780.159 163.076 780.547 163.069 780.936 163.066 781.325 163.066 815.642 163.066 843.46 190.885 843.46 225.201 843.46 239.036 838.938 251.816 831.292 262.142Z" fill="#e55041"/><path d="M261.778 320.236C282.779 323.003 302.86 333.282 317.637 350.713 349.207 387.955 344.61 443.739 307.368 475.309 275.427 502.387 229.846 502.859 197.6 478.948 174.309 490.375 147.316 490.803 123.956 480.838 118.82 490.682 111.731 499.717 102.738 507.339 65.4967 538.91 9.71324 534.313-21.8574 497.071-53.4281 459.829-48.8308 404.046-11.589 372.475-3.77268 365.849 4.86039 360.816 13.9149 357.344 9.898 328.362 20.3446 298.011 44.3151 277.691 77.8183 249.289 126.327 250.159 158.714 277.734 159.006 277.478 159.3 277.224 159.597 276.972 185.773 254.781 224.982 258.013 247.172 284.189 256.119 294.743 260.933 307.415 261.778 320.236Z" fill="#e55041"/><path d="M469.078 114.511C490.08 117.278 510.161 127.558 524.938 144.989 556.508 182.231 551.911 238.014 514.669 269.585 482.728 296.662 437.147 297.134 404.901 273.224 381.609 284.65 354.617 285.079 331.257 275.113 326.121 284.957 319.032 293.992 310.039 301.615 272.798 333.186 217.014 328.588 185.444 291.346 153.873 254.105 158.47 198.321 195.712 166.751 203.528 160.124 212.161 155.092 221.216 151.619 217.199 122.638 227.646 92.2864 251.616 71.9661 285.119 43.5647 333.628 44.4342 366.015 72.0093 366.307 71.7531 366.601 71.499 366.898 71.2471 393.074 49.0569 432.283 52.2883 454.473 78.4646 463.42 89.0182 468.234 101.69 469.078 114.511Z" fill="#e55041"/></g><g clip-path="url(#clip2_3445_702)"><path d="M596.844 126.437V208.576C596.844 256.15 558.194 294.78 510.592 294.78H430.041C382.439 294.78 343.789 256.15 343.789 208.576V124.206C343.789 63.8211 374.302 7.50818 425.154-25.4283L437.767-33.558C456.072-45.3489 479.469-45.5542 497.98-34.1671L512.625-25.0177C565.105 7.51503 596.837 64.6423 596.837 126.45L596.844 126.437Z" fill="#000000"/><path d="M560.835 298.441H385.081L405.829 110.991H540.292L560.835 298.441Z" fill="#f4c9b8"/><path d="M472.961 209.794C426.578 209.794 391.39 186.616 389.761 141.889L386.914 71.1365C384.882 22.3443 424.142-18.5235 472.961-18.5235 521.781-18.5235 561.04 22.139 559.008 71.1365L556.161 141.889C554.532 186.616 519.543 209.794 472.961 209.794Z" fill="#f4c9b8"/><path d="M559.213 67.4822V70.938L559.008 75.2082 556.359 141.895C556.154 146.166 555.75 150.032 554.936 153.892L454.45 115.871C435.939 108.959 415.191 113.428 401.155 127.258L389.563 138.843 386.921 71.1433V66.8731C387.325 19.9081 425.572-18.5166 473.173-18.5166 520.775-18.5166 559.22 20.3187 559.22 67.4822H559.213Z" fill="#cea193"/><path d="M408.478 93.507C408.478 82.9342 399.93 74.1954 389.152 74.1954 378.374 74.1954 369.827 82.7357 369.827 93.507 369.827 104.278 378.374 121.564 389.152 121.564 399.93 121.564 408.478 104.08 408.478 93.507Z" fill="#cea193"/><path d="M576.095 93.507C576.095 82.9342 567.548 74.1954 556.77 74.1954 545.992 74.1954 537.445 82.7357 537.445 93.507 537.445 104.278 545.992 121.564 556.77 121.564 567.548 121.564 576.095 104.08 576.095 93.507Z" fill="#cea193"/><g fill="#000000"><path d="M468.889 140.671C468.075 140.671 467.261 140.267 466.857 139.658 466.043 138.44 466.453 137.016 467.671 136.202 469.095 135.388 500.827 114.858 523.615 119.737 525.038 119.942 525.852 121.366 525.449 122.584 525.243 123.802 523.82 124.822 522.602 124.411 501.853 119.936 470.73 139.863 470.525 140.068 469.916 140.472 469.307 140.677 468.896 140.677L468.889 140.671Z"/><path d="M499.403 84.3576C501.237 91.064 501.641 96.5591 498.589 97.3666 495.537 98.1809 493.094 93.0964 491.472 86.39 489.638 79.8821 497.576 77.8497 499.403 84.3576Z"/><path d="M437.766 84.3576C439.594 91.064 440.004 96.5591 436.952 97.3666 433.9 98.1809 431.457 93.0964 429.835 86.39 428.001 79.8821 435.939 77.8497 437.766 84.3576Z"/><path d="M426.783 90.2496C423.526 90.2496 420.275 90.2496 417.018 90.0443 413.562 90.0443 410.914 87.1975 410.914 83.7417 410.914 80.2859 413.76 77.6444 417.216 77.6444 463.189 78.664 512.214 71.5471 512.618 71.3418 516.073 70.938 519.126 73.1689 519.536 76.4263 519.94 79.8821 517.702 82.9342 514.246 83.338 514.041 83.947 470.717 90.2496 426.776 90.2496H426.783Z"/></g><path d="M472.961 209.794C467.671 209.794 462.587 209.39 457.502 208.98 454.245 208.576 453.027 212.846 455.874 214.269 473.365 223.008 507.54 232.773 551.077 209.794L547.21 174.62C533.784 197.798 506.322 209.794 472.961 209.794Z" fill="#cea193"/><path d="M205.677 616.385H745.052C766.952 599.153 779.667 568.129 774.545 535.491L753.881 403.503C742.046 328.284 690.124 269.894 624.425 257.729L552.011 244.347C552.011 244.347 523.047 289.355 475.362 289.355 427.676 289.355 398.712 244.347 398.712 244.347L326.299 257.729C260.599 269.894 208.677 328.284 196.842 403.503L176.184 535.491C171.063 568.136 183.777 599.153 205.677 616.385Z" fill="#3d3d3d"/><path d="M512.625-25.0245 497.98-34.1739C479.469-45.561 456.072-45.3557 437.767-33.5649L425.154-25.4351C374.501 7.50134 343.789 63.8142 343.789 124.199L343.994 227.278C343.994 251.88 358.235 274.243 380.407 284.816L443.063 314.495C460.356 322.632 480.29 322.632 497.378 314.495L560.233 284.816C582.61 274.243 596.851 251.88 596.851 227.278V126.437C596.851 64.6286 565.119 7.50134 512.638-25.0314L512.625-25.0245ZM435.734 261.638 371.654 209.39C365.146 204.1 361.28 196.176 361.28 187.636V119.73C361.28 112.21 364.332 105.093 369.416 99.8027L401.148 68.0844C415.184 54.0558 435.933 49.5803 454.443 56.6973L537.034 88.005C555.545 95.122 567.952 112.812 567.952 132.732V191.283C567.952 199.618 564.291 207.549 557.783 212.832L499.403 261.015C480.892 276.673 454.245 276.673 435.734 261.625V261.638Z" fill="#3d3d3d"/><path d="M466.694 492.583C557.675 492.583 631.431 418.828 631.431 327.846 631.431 236.865 557.675 163.109 466.694 163.109 375.712 163.109 301.957 236.865 301.957 327.846 301.957 418.828 375.712 492.583 466.694 492.583Z" fill="#ffffff"/><path d="M563.193 509.188H372.498C367.812 509.188 364.252 504.98 365.021 500.357L370.377 468.155C370.983 464.497 374.148 461.819 377.855 461.819H555.708C559.232 461.819 562.298 464.251 563.094 467.683L570.579 499.885C571.685 504.642 568.077 509.181 563.193 509.181V509.188Z" fill="#bcbcbc"/><rect fill="#d9d9d9" height="53.7573" rx="26.8786" width="253.018" x="339.791" y="301.369"/><circle cx="382.08" cy="328.606" fill="#3d3d3d" r="15.052"/><circle cx="435.838" cy="328.606" fill="#3d3d3d" r="15.052"/><circle cx="489.595" cy="328.606" fill="#3d3d3d" r="15.052"/><circle cx="543.352" cy="328.606" fill="#3d3d3d" r="15.052"/></g><path d="M266.653 294.261C270.371 296.081 272.136 300.388 270.779 304.301L237.115 401.126 195.472 378.887 242.066 301.495C247.137 293.062 257.82 289.924 266.645 294.258L266.653 294.261Z" fill="#cea193"/><path d="M220.416 245.675 259.168 236.182C265.814 234.551 272.448 238.862 273.663 245.595 275.391 255.144 269.421 264.41 260 266.775L207.861 280.018C206.692 280.311 216.906 246.532 220.416 245.675Z" fill="#cea193"/><path d="M226.691 254.61 256.732 246.985 261.772 245.708 278.827 241.375C285.009 239.826 289.71 235.302 291.72 229.671 292.772 226.724 293.09 223.485 292.49 220.195 291.356 213.925 285.512 209.748 279.357 210.529 278.904 210.584 278.45 210.668 277.995 210.782L277.821 210.828 239.251 220.279C235.747 221.147 225.537 254.917 226.697 254.622L226.691 254.61Z" fill="#f4c9b8"/><path d="M226.691 254.61 254.014 248.026 277.352 210.927 273.7 211.822 239.237 220.264C235.733 221.132 225.522 254.902 226.683 254.607L226.691 254.61Z" fill="#cea193"/><path d="M189.025 427.773 224.112 431.989 232.152 413.344C247.249 381.131 248.017 344.041 234.263 311.23L221.616 281.063C220.948 279.455 221.016 277.635 221.824 276.09L240.753 239.743C241.346 238.605 242.239 237.652 243.325 236.984L269.128 221.124C277.92 215.714 281.022 204.429 276.214 195.279 274.675 192.354 272.161 190.283 269.301 189.262 265.856 188.033 261.897 188.296 258.503 190.347L222.227 212.348C218.954 214.335 216.148 217.03 214.048 220.234L181.155 270.21C178.598 274.088 177.143 278.577 176.937 283.216L174.083 353.162C173.78 360.694 172.334 368.144 169.802 375.236L164.447 390.237 189.025 427.773Z" fill="#f4c9b8"/><path d="M165.391 390.017C160.425 387.652 154.502 390.098 152.653 395.279L95.4797 555.451 207.412 595.405 236.118 438.927C237.633 430.669 233.418 422.422 225.839 418.811L165.391 390.017Z" fill="#3d3d3d"/><path d="M671.297 302.808C667.522 304.507 665.618 308.755 666.848 312.709L697.367 410.572 739.706 389.69 695.637 310.833C690.842 302.24 680.266 298.759 671.305 302.805L671.297 302.808Z" fill="#cea193"/><path d="M719.08 255.742 680.654 245.001C674.065 243.157 667.295 247.25 665.863 253.941 663.828 263.429 669.495 272.883 678.835 275.551L730.518 290.473C731.677 290.803 722.56 256.712 719.08 255.742Z" fill="#cea193"/><path d="M712.519 264.469 682.74 255.878 677.744 254.438 660.838 249.556C654.709 247.808 650.157 243.135 648.33 237.442 647.374 234.462 647.161 231.215 647.867 227.946 649.203 221.715 655.179 217.73 661.305 218.709 661.756 218.779 662.207 218.878 662.658 219.006L662.831 219.058 701.075 229.75C704.549 230.731 713.663 264.813 712.513 264.48L712.519 264.469Z" fill="#f4c9b8"/><path d="M712.519 264.469 685.423 257.006 663.296 219.172 666.917 220.184 701.089 229.735C704.564 230.717 713.678 264.799 712.528 264.466L712.519 264.469Z" fill="#cea193"/><path d="M744.57 438.759 709.366 441.839 701.932 422.944C687.884 390.26 688.315 353.164 703.122 320.815L716.737 291.073C717.456 289.486 717.447 287.666 716.69 286.095L698.945 249.156C698.389 247.999 697.528 247.017 696.464 246.315L671.187 229.629C662.573 223.938 659.838 212.559 664.94 203.569 666.572 200.695 669.152 198.706 672.043 197.779 675.526 196.661 679.474 197.052 682.8 199.212L718.347 222.373C721.554 224.465 724.271 227.25 726.266 230.52L757.527 281.532C759.958 285.491 761.267 290.025 761.323 294.668L761.915 364.669C761.975 372.207 763.18 379.7 765.481 386.87L770.348 402.036 744.57 438.759Z" fill="#f4c9b8"/><path d="M769.412 401.786C774.452 399.583 780.292 402.219 781.973 407.457L833.941 569.392 720.777 605.709 697.141 448.385C695.894 440.083 700.373 431.976 708.065 428.612L769.412 401.786Z" fill="#3d3d3d"/><path d="M204.291 511.707 218.281 461.278C219.764 455.933 227.65 457.066 227.567 462.613L226.8 513.969C226.759 516.683 224.448 518.806 221.74 518.616L208.517 517.689C205.534 517.48 203.491 514.589 204.291 511.707Z" fill="#000000"/><path d="M713.78 522.435 705.024 462.611C704.206 457.026 696.055 457.31 695.629 462.939L691.145 522.111C690.944 524.765 692.971 527.061 695.628 527.192L708.868 527.843C711.843 527.989 714.211 525.382 713.78 522.435Z" fill="#000000"/><path d="M852.745 75.1372C853.73 70.5912 860.215 70.5912 861.2 75.1373L866.368 98.9899C866.681 100.435 867.71 101.619 869.097 102.132L882.632 107.13C886.401 108.522 886.401 113.853 882.632 115.245L869.097 120.244C867.71 120.756 866.681 121.941 866.368 123.386L861.2 147.238C860.215 151.784 853.73 151.784 852.745 147.238L847.577 123.386C847.264 121.941 846.235 120.756 844.848 120.244L831.313 115.245C827.543 113.853 827.543 108.522 831.313 107.13L844.848 102.132C846.235 101.619 847.264 100.435 847.577 98.9899L852.745 75.1372Z" fill="#e55041"/><path d="M87.2887 112.157C88.4938 106.595 96.4273 106.595 97.6323 112.157L103.955 141.338C104.338 143.106 105.597 144.555 107.294 145.182L123.853 151.297C128.464 153 128.464 159.522 123.853 161.225L107.294 167.341C105.597 167.967 104.338 169.417 103.955 171.184L97.6323 200.366C96.4273 205.927 88.4938 205.927 87.2887 200.366L80.9661 171.184C80.5831 169.417 79.3241 167.967 77.6275 167.341L61.0684 161.225C56.457 159.522 56.457 153 61.0684 151.297L77.6275 145.182C79.3241 144.555 80.5831 143.106 80.9661 141.338L87.2887 112.157Z" fill="#e55041"/><path d="M887.405 206.913C887.973 204.278 891.713 204.278 892.281 206.913L895.262 220.738C895.442 221.575 896.036 222.262 896.836 222.559L904.642 225.456C906.816 226.263 906.816 229.353 904.642 230.16L896.836 233.057C896.036 233.354 895.442 234.041 895.262 234.878L892.281 248.704C891.713 251.339 887.973 251.339 887.405 248.704L884.424 234.878C884.244 234.041 883.65 233.354 882.851 233.057L875.044 230.16C872.87 229.353 872.87 226.263 875.044 225.456L882.851 222.559C883.65 222.262 884.244 221.575 884.424 220.738L887.405 206.913Z" fill="#e55041"/></g></g></svg>